<?xml version="1.0" standalone="no"?>
<!DOCTYPE svg PUBLIC "-//W3C//DTD SVG 20010904//EN"
 "http://www.w3.org/TR/2001/REC-SVG-20010904/DTD/svg10.dtd">
<svg version="1.0" xmlns="http://www.w3.org/2000/svg"
 width="1280.000000pt" height="640.000000pt" viewBox="0 0 1280.000000 640.000000"
 preserveAspectRatio="xMidYMid meet">
<g transform="translate(0.000000,640.000000) scale(0.100000,-0.100000)"
fill="#000000" stroke="none">
<path d="M946 5229 c-170 -24 -270 -124 -382 -383 l-51 -120 -59 -16 c-79 -22
-94 -31 -146 -89 -211 -235 -344 -1006 -290 -1681 46 -571 132 -909 285 -1116
49 -67 88 -95 157 -115 48 -13 80 -35 80 -53 0 -27 113 -237 162 -301 86 -111
165 -154 323 -175 39 -5 196 -8 350 -7 328 2 331 3 441 109 154 147 261 378
359 768 78 313 118 584 131 901 7 150 9 161 28 170 20 8 789 65 1206 89 102 6
259 15 350 20 885 51 1833 75 2645 67 573 -6 1469 -28 1720 -42 55 -3 219 -10
365 -15 499 -19 1554 -76 1788 -96 86 -8 78 10 87 -204 20 -490 137 -1041 291
-1368 63 -134 119 -216 203 -295 105 -100 110 -102 436 -104 154 -1 312 2 350
7 158 21 237 64 323 175 49 64 162 274 162 301 0 18 32 40 80 53 69 20 108 48
157 115 142 192 234 528 272 991 6 72 16 186 22 255 18 189 2 487 -42 795 -48
339 -149 636 -258 757 -51 57 -66 66 -145 88 l-59 16 -51 120 c-116 267 -211
359 -397 384 -40 5 -209 8 -374 6 -337 -4 -348 -6 -442 -77 -162 -122 -289
-377 -393 -794 -80 -319 -116 -548 -135 -863 -5 -75 -11 -115 -20 -118 -6 -3
-207 11 -446 30 -967 79 -1563 117 -2474 158 -440 20 -1922 17 -2410 -5 -415
-19 -1032 -51 -1280 -67 -82 -5 -258 -17 -390 -25 -132 -9 -444 -31 -693 -50
-249 -20 -457 -33 -462 -30 -4 3 -11 53 -15 112 -9 156 -42 430 -66 558 -25
135 -99 432 -134 539 -84 258 -199 454 -324 552 -95 74 -104 76 -461 79 -173
1 -341 -2 -374 -6z"/>
</g>
</svg>
